<?xml version="1.0" standalone="no"?><!DOCTYPE svg PUBLIC "-//W3C//DTD SVG 1.1//EN" "http://www.w3.org/Graphics/SVG/1.1/DTD/svg11.dtd"><svg t="1727856659417" class="icon" viewBox="0 0 1024 1024" version="1.1" xmlns="http://www.w3.org/2000/svg" p-id="2228" xmlns:xlink="http://www.w3.org/1999/xlink" width="200" height="200"><path d="M733.4 1024c-83.9 0-152.2-68.3-152.2-152.2V152.2C581.2 68.3 649.5 0 733.4 0s152.2 68.3 152.2 152.2v719.6c0 83.9-68.3 152.2-152.2 152.2z m0-941c-38.2 0-69.2 31-69.2 69.2v719.6c0 38.2 31 69.2 69.2 69.2s69.2-31 69.2-69.2V152.2c0-38.1-31-69.2-69.2-69.2z m-442.8 941c-83.9 0-152.2-68.3-152.2-152.2V152.2C138.4 68.3 206.7 0 290.6 0s152.2 68.3 152.2 152.2v719.6c0 83.9-68.3 152.2-152.2 152.2z m0-941c-38.1 0-69.2 31-69.2 69.2v719.6c0 38.2 31 69.2 69.2 69.2s69.2-31 69.2-69.2V152.2c0-38.1-31.1-69.2-69.2-69.2z" fill="#1296db" p-id="2229"></path></svg>