<?xml version="1.0" standalone="no"?><!DOCTYPE svg PUBLIC "-//W3C//DTD SVG 1.1//EN" "http://www.w3.org/Graphics/SVG/1.1/DTD/svg11.dtd"><svg t="1727241076311" class="icon" viewBox="0 0 1024 1024" version="1.1" xmlns="http://www.w3.org/2000/svg" p-id="7066" xmlns:xlink="http://www.w3.org/1999/xlink" width="200" height="200"><path d="M741.764517 229.309529c7.3643 3.696367 18.453401 3.696367 25.817701 7.392734a23.855784 23.855784 0 0 1 18.453402 18.709304c3.667933 11.145968 3.667933 18.652437 7.421167 29.798405 3.667933 7.506468 7.307433 14.95607 18.396535 14.956069a24.396022 24.396022 0 0 0 18.453401-14.956069 87.945101 87.945101 0 0 0 7.421168-29.798405 23.656749 23.656749 0 0 1 18.453401-18.652437 244.272991 244.272991 0 0 0 29.485635-11.202835 37.304873 37.304873 0 0 0 14.785468-18.652437c0-11.202835-7.421168-14.899202-14.785468-18.652436a67.387614 67.387614 0 0 1-25.817702-7.449601c-11.089101-3.696367-18.453401-7.449601-18.453401-18.652437-3.667933-7.449601-3.667933-18.652437-7.3643-26.102038-3.667933-11.202835-7.3643-14.899202-18.453402-14.899202s-14.728601 7.392734-18.453401 14.899202a250.67055 250.67055 0 0 0-7.364301 26.102038c-7.3643 11.202835-14.728601 18.652437-25.817701 18.652437-7.3643 3.696367-14.785468 3.696367-22.149769 7.449601-11.032234 3.696367-18.453401 7.449601-18.453401 18.652436 0 14.899202 7.421168 18.652437 18.453401 22.405671z m280.35522 391.559a20.244718 20.244718 0 0 0-18.453402-11.145969h-29.542502a33.267303 33.267303 0 0 1-25.817702-11.202835c-3.667933-7.449601-11.089101-14.95607-14.728601-22.405671-7.3643-7.392734-14.728601-14.899202-22.149768-11.145968-11.032234 3.696367-11.032234 11.145968-11.032234 22.348804v26.102037a34.120311 34.120311 0 0 1-11.089101 26.102038c-7.3643 3.696367-14.785468 11.202835-22.149768 14.95607-7.307433 7.392734-14.728601 14.899202-11.032234 26.102037s11.032234 11.202835 22.092901 11.202836h25.817702a33.267303 33.267303 0 0 1 25.817702 11.145968 159.228117 159.228117 0 0 1 18.453401 26.102038c3.667933 7.506468 11.089101 7.506468 22.149768 7.506468 7.307433-3.753234 14.728601-7.506468 14.728601-18.652437v-33.608506a26.556975 26.556975 0 0 1 11.089101-22.348803c7.3643-7.449601 18.453401-11.202835 25.817702-18.652437 0-7.449601 3.667933-14.899202 0-22.40567zM324.89962 83.928572a34.120311 34.120311 0 0 1 11.089101 26.102037c0 11.202835-3.696367 18.652437-3.696367 29.798405s0 18.652437 11.089101 22.405671c7.307433 3.696367 14.728601 0 22.092901-7.449601l22.206636-22.519405c7.3643-7.392734 14.728601-11.145968 22.092901-7.392734 11.089101 0 22.149768 3.696367 33.238869 3.696367a20.273151 20.273151 0 0 0 18.453402-11.202836 17.799429 17.799429 0 0 0-3.696367-22.40567c-7.3643-7.392734-14.728601-11.145968-22.149769-18.652437s-14.728601-14.899202-11.032233-26.102038c0-7.392734 3.667933-18.652437 3.667933-26.102037 0-11.202835 0-18.652437-11.032234-22.348804a16.434616 16.434616 0 0 0-22.149768 7.392734c-7.3643 7.506468-11.089101 14.95607-18.453402 18.709304a23.144944 23.144944 0 0 1-29.514068 11.202835 48.792044 48.792044 0 0 0-29.485636-7.506468 22.32037 22.32037 0 0 0-22.149768 11.202835c-3.667933 7.449601 0 14.95607 7.3643 22.405671s14.785468 11.145968 22.149769 18.652436z" fill="#F5602A" p-id="7067"></path><path d="M453.163555 535.965822a29.99744 29.99744 0 0 0 25.874569 41.058107 30.736713 30.736713 0 0 0 22.092901-7.335867c29.514069-29.855272 59.056571-59.710544 84.874273-89.508948l140.149176-141.741458a26.556975 26.556975 0 0 0 11.089101-22.348803 28.433592 28.433592 0 0 0-22.092901-29.855272 26.613842 26.613842 0 0 0-29.514069 7.449601c-106.967174 108.047651-118.056275 123.117455-224.995015 231.250406-3.667933 3.696367-7.3643 7.392734-7.364301 11.145968z" fill="#F5602A" p-id="7068"></path><path d="M276.93215 453.252502a51.180466 51.180466 0 0 0-33.182002-11.231269 57.179954 57.179954 0 0 0-29.514069 22.405671L3.94123 971.653757a34.347779 34.347779 0 0 0 7.421168 41.00124 33.295737 33.295737 0 0 0 40.546302 7.449601l505.293369-212.541103a38.47065 38.47065 0 0 0 22.149768-29.855271 30.310209 30.310209 0 0 0-11.089101-33.551639L276.93215 453.252502zM184.693576 885.841175l-73.728304 29.855272 84.817405-205.091501-11.089101 175.264663z m125.420576-55.95731l-66.364004 29.855272 22.092901-302.050051v-7.620202l62.696071 63.406911-18.453402 216.294336z m59.056571-26.102037l11.032234-137.95979 96.048675 96.986983-106.967174 41.00124z" fill="#F5602A" p-id="7069"></path><path d="M631.157843 165.874185a25.049995 25.049995 0 0 0 18.453401-7.478035 25.590233 25.590233 0 0 0 7.335867-18.68087 23.912651 23.912651 0 0 0-22.149769-22.348804 25.049995 25.049995 0 0 0-18.453401 7.449601 25.590233 25.590233 0 0 0-7.3643 18.652437 21.410495 21.410495 0 0 0 22.149768 22.405671z m-73.785172 175.293096a22.121335 22.121335 0 0 0 22.092901-11.373437c14.785468-33.551639 29.514069-67.103278 40.60317-100.654916a25.163729 25.163729 0 0 0-11.089101-29.855272 23.173378 23.173378 0 0 0-29.514069 11.202835c-14.728601 33.551639-29.485635 67.103278-40.546303 100.711784a20.330018 20.330018 0 0 0 18.453402 29.798405z m235.998816 67.103278a695.656269 695.656269 0 0 0-92.238574 41.00124 25.220596 25.220596 0 0 0-14.785468 22.405671 20.216284 20.216284 0 0 0 29.514069 18.652436c33.182002-11.202835 62.696071-26.102038 95.878073-41.058107 14.785468-7.392734 18.453401-18.652437 11.089101-29.798405a19.448577 19.448577 0 0 0-29.485635-11.202835z m-372.480059-227.468738a27.353116 27.353116 0 0 0-14.785468 37.304873c40.546303 104.408151 22.092901 167.758195-36.96367 249.902842a30.025873 30.025873 0 0 0 7.3643 41.00124 22.092901 22.092901 0 0 0 14.728601 3.696367 26.187338 26.187338 0 0 0 22.149768-11.145968c66.364004-93.262183 95.878073-179.131631 44.271103-305.860152a25.874569 25.874569 0 0 0-36.96367-14.899202z m461.050699 190.192298a24.737225 24.737225 0 0 0-25.817702 22.348804 21.353628 21.353628 0 0 0 22.092901 22.405671 20.955558 20.955558 0 0 0 22.149768-26.102038c3.696367-7.449601-7.3643-18.652437-18.396534-18.652437zM786.03562 747.710784a27.694319 27.694319 0 0 0-25.817702 22.348803 31.902491 31.902491 0 0 0 22.149768 26.102038 27.694319 27.694319 0 0 0 25.817702-22.405671 24.85096 24.85096 0 0 0-22.149768-26.102037z m44.271103-175.293097c-125.420576-52.260943-210.209548-22.405671-302.448121 44.754475-14.728601 7.392734-14.728601 26.102038-7.364301 41.00124a31.760323 31.760323 0 0 0 22.149769 11.202835c7.307433 0 11.032234 0 14.728601-3.696367 81.149472-59.710544 143.845543-82.116215 247.173217-37.304873a25.817702 25.817702 0 0 0 36.96367-14.95607c10.946933-18.68087 3.525765-37.333307-11.202835-41.029673z m-125.420576 141.713024c-7.307433-3.696367-18.453401-7.449601-25.817701-11.202835-14.728601-3.696367-25.817702-11.145968-40.546303-14.899202a23.287112 23.287112 0 0 0-29.514069 14.899202c-3.667933 14.95607 0 26.102038 14.728601 29.855272l66.420872 22.40567a23.599882 23.599882 0 0 0 29.542502-18.68087 20.443753 20.443753 0 0 0-14.785468-22.40567zM262.28885 329.992879c7.3643 22.405671 14.728601 41.058107 22.092901 63.406911 7.421168 14.95607 18.453401 22.405671 29.514069 14.95607a28.035522 28.035522 0 0 0 14.728601-33.551639c-7.307433-22.405671-14.728601-41.058107-22.092902-63.406911a20.244718 20.244718 0 0 0-22.149768-15.04137 29.002264 29.002264 0 0 0-22.092901 33.636939zM251.199749 262.832734a23.912651 23.912651 0 0 0 22.092901-22.40567c0-11.145968-11.089101-26.102038-22.149768-26.102038a27.694319 27.694319 0 0 0-25.817702 22.405671c3.667933 14.899202 11.089101 26.102038 25.817702 26.102037z" fill="#FF8E01" p-id="7070"></path></svg>