<?xml version="1.0" standalone="no"?><!DOCTYPE svg PUBLIC "-//W3C//DTD SVG 1.1//EN" "http://www.w3.org/Graphics/SVG/1.1/DTD/svg11.dtd"><svg t="1728029220547" class="icon" viewBox="0 0 1024 1024" version="1.1" xmlns="http://www.w3.org/2000/svg" p-id="17055" xmlns:xlink="http://www.w3.org/1999/xlink" width="200" height="200"><path d="M213.333333 405.333333 320 597.333333 106.666667 597.333333 213.333333 405.333333M128 170.666667 298.666667 170.666667 298.666667 341.333333 128 341.333333 128 170.666667M213.333333 853.333333C260.266667 853.333333 298.666667 814.933333 298.666667 768 298.666667 721.066667 260.266667 682.666667 213.333333 682.666667 166.4 682.666667 128 721.066667 128 768 128 814.933333 166.4 853.333333 213.333333 853.333333M384 213.333333 384 298.666667 896 298.666667 896 213.333333 384 213.333333M384 810.666667 896 810.666667 896 725.333333 384 725.333333 384 810.666667M384 554.666667 896 554.666667 896 469.333333 384 469.333333 384 554.666667Z" p-id="17056" fill="#1296db"></path></svg>